<svg version="1.2" xmlns="http://www.w3.org/2000/svg" viewBox="0 0 1100 296" width="1100" height="296">
	<title>Crobata-logo-svg</title>
	<defs>
		<linearGradient id="g1" x2="1" gradientUnits="userSpaceOnUse" gradientTransform="matrix(14.037,214.057,-159.208,10.44,781.271,75.01)">
			<stop offset="0" stop-color="#404040"/>
			<stop offset="1" stop-color="#000000"/>
		</linearGradient>
		<linearGradient id="g2" x2="1" gradientUnits="userSpaceOnUse" gradientTransform="matrix(14.036,214.057,-191.447,12.554,868.635,69.281)">
			<stop offset="0" stop-color="#404040"/>
			<stop offset="1" stop-color="#000000"/>
		</linearGradient>
		<linearGradient id="g3" x2="1" gradientUnits="userSpaceOnUse" gradientTransform="matrix(14.037,214.057,-167.551,10.987,953.235,63.734)">
			<stop offset="0" stop-color="#404040"/>
			<stop offset="1" stop-color="#000000"/>
		</linearGradient>
		<linearGradient id="g4" x2="1" gradientUnits="userSpaceOnUse" gradientTransform="matrix(14.037,214.057,-191.447,12.554,1026.797,58.91)">
			<stop offset="0" stop-color="#404040"/>
			<stop offset="1" stop-color="#000000"/>
		</linearGradient>
		<linearGradient id="g5" x2="1" gradientUnits="userSpaceOnUse" gradientTransform="matrix(5.323,234.185,-384.969,8.75,223.849,58.138)">
			<stop offset="0" stop-color="#404040"/>
			<stop offset="1" stop-color="#000000"/>
		</linearGradient>
	</defs>
	<style>
		.s0 { fill: #000000 } 
		.s1 { fill: url(#g1) } 
		.s2 { fill: url(#g2) } 
		.s3 { fill: url(#g3) } 
		.s4 { fill: url(#g4) } 
		.s5 { fill: url(#g5) } 
	</style>
	<g id="Layer">
		<g id="Layer">
			<path id="Layer" class="s0" d="m550.2 149.1h-16.8q-1.5-8.3-7.5-12.8-6-4.6-14.4-4.6-11.2 0-18.4 8.4-7.2 8.3-7.2 23.9 0 15.8 7.2 24 7.2 8.2 18.4 8.2 8.2 0 14.3-4.3 6-4.4 7.6-12.5l16.7 0.1q-1.2 8.8-6.3 16-5.1 7.2-13.3 11.4-8.3 4.3-19.3 4.3-12.1 0-21.6-5.6-9.5-5.7-15-16.2-5.4-10.6-5.4-25.4 0-14.9 5.5-25.4 5.5-10.6 15-16.2 9.6-5.6 21.6-5.6 10.1 0 18.4 3.8 8.3 3.8 13.7 11 5.4 7.2 6.8 17.5z"/>
			<path id="Layer" fill-rule="evenodd" class="s0" d="m568.6 209.9v-91.8h34.4q15.9 0 24.2 8.1 8.2 8.1 8.2 21.2 0 9.4-4.2 16.2-4.2 6.7-12.3 9.9l19.9 36.4h-18.6l-18-33.6h-17v33.6zm16.7-47.4h15.3q9.3 0 13.6-3.9 4.3-3.9 4.3-11.2 0-7.3-4.3-11.4-4.3-4-13.7-4h-15.2z"/>
			<path id="Layer" fill-rule="evenodd" class="s0" d="m736 164q0 14.8-5.5 25.4-5.5 10.6-15.1 16.2-9.5 5.6-21.6 5.6-12 0-21.6-5.6-9.5-5.7-15.1-16.2-5.5-10.6-5.5-25.4 0-14.9 5.5-25.4 5.6-10.6 15.1-16.2 9.6-5.6 21.6-5.6 12.1 0 21.6 5.6 9.6 5.6 15.1 16.2 5.5 10.6 5.5 25.4zm-16.7 0q0-15.7-7.1-24-7.1-8.3-18.4-8.3-11.2 0-18.3 8.3-7.1 8.3-7.1 24 0 15.7 7.1 24 7.1 8.3 18.3 8.3 11.3 0 18.4-8.3 7.1-8.3 7.1-24z"/>
			<path id="Layer" fill-rule="evenodd" class="s1" d="m755 209.9v-91.8h35.2q14.9 0 22.3 6.7 7.4 6.8 7.4 17.1 0 8.4-4.6 13.2-4.7 4.8-11.4 6.3v0.9q4.9 0.3 9.4 3 4.5 2.7 7.4 7.7 2.8 4.9 2.8 11.9 0 7.1-3.4 12.8-3.5 5.7-10.4 9-7 3.2-17.5 3.2zm16.6-52.8h16.5q6.5 0 10.8-3.5 4.4-3.5 4.4-9.6 0-5.3-3.8-8.8-3.7-3.4-11.1-3.4h-16.8zm0 38.9h17.9q9.1 0 13.1-3.5 4-3.5 4-8.9 0-6.2-4.5-10.4-4.4-4.1-12.1-4.1h-18.4z"/>
			<path id="Layer" class="s2" d="m888.1 118.1h-20.5l-32.4 91.8h17.8l7.6-22.6 16.9-50.4h0.7l16.9 50.4 7.6 22.6h17.8z"/>
			<path id="Layer" class="s3" d="m920.6 132v-13.9h73.3v13.9h-28.4v77.9h-16.5v-77.9z"/>
			<path id="Layer" fill-rule="evenodd" class="s4" d="m1011.8 209.9h-17.7l32.3-91.8h20.5l32.4 91.8h-17.7l-7.7-22.6h-34.5zm12.1-36.1h25.5l-12.4-37h-0.7z"/>
		</g>
		<path id="Layer" class="s5" d="m422.5 45.3q0 0-0.6 0-0.4 0-0.9 0.1c-1.2 0.1-3.2 0.4-5.8 0.8q-1 0.2-2.2 0.4-1.1 0.2-2.3 0.4-0.6 0.2-1.3 0.3-1 0.2-2.1 0.5-1.1 0.2-2.2 0.5-4.5 1-9.8 2.5-1.3 0.4-2.7 0.8c-1.1 0.4-2.3 0.7-3.5 1.2q-1.2 0.3-2.4 0.8-5.1 1.7-10.5 3.8-1.2 0.5-2.4 1-0.5 0.2-0.9 0.4-0.9 0.4-1.8 0.8-5.1 2.1-10.4 4.8-0.7 0.3-1.3 0.6-0.4 0.2-0.8 0.4-0.8 0.5-1.7 0.9-1.2 0.6-2.4 1.3-3.2 1.7-6.5 3.6-3 1.7-6 3.6-2.3 1.5-4.6 3-2.3 1.5-4.6 3.1c-3 2.2-6.1 4.4-9.2 6.9q-3.1 2.4-6.1 5-1.5 1.3-3.1 2.6-3 2.7-6.1 5.6 0 0 0 0.1-1.5 1.4-3 2.9c-7 7-13.9 14.8-20.5 23.5-1.4 1.9-2.8 3.8-4.2 5.7q-2 3-4 6c68.2-23.3 115.7-1.3 117.6-0.3-26.8-9.7-59.6-4.3-87.9 4.6-28.2 9-50.6 30.9-59.9 59q-0.1 0.4-0.2 0.8c-1.1-1.8-2.1-3.7-3.3-5.3-1.3-1.6-3-3-4.6-4.7 1.3-6.8 2.6-13.8 4.1-21.4q-0.2 0.1-0.4 0.3c-2.4 1.7-4.2 3.1-6.1 4.6q-3 2.3-6 4.6c-2 1.5-4 3-6.1 4.7q-0.1-0.1-0.2-0.2c-1.4-0.9-2.5-1.8-3.7-2.7q-1.8-1.3-3.5-2.7-1.8-1.4-3.7-2.8c-1.2-0.9-2.3-1.8-3.5-2.7-1.2-0.9-2.3-2-4.1-2.8 0.2 1.4 0.3 2.4 0.6 3.4q1.5 7.9 3.1 15.8c0.1 0.8 0.1 1.5 0.2 2-1.7 1.7-3.3 3-4.5 4.7-1.3 1.6-2.3 3.6-3.5 5.5 0-0.1 0-0.2-0.1-0.3q0-0.3-0.1-0.5-0.1-0.2-0.1-0.3c-9.3-28.1-31.7-50-59.9-59-28.3-8.9-61.1-14.3-87.9-4.6 1.9-1 49.5-23 117.7 0.3q-2.1-3-4.1-6c-1.4-1.9-2.8-3.8-4.2-5.7-6.6-8.7-13.4-16.5-20.5-23.5q-1.4-1.5-3-2.9 0 0 0-0.1-3.1-2.9-6.1-5.6-1.5-1.3-3.1-2.6 0 0 0 0-3-2.6-6.1-5-4.6-3.7-9.2-6.9-2.3-1.6-4.6-3.1-2.3-1.5-4.6-3-3-1.9-6-3.6-3.3-1.9-6.5-3.6-1.2-0.7-2.4-1.3-0.9-0.5-1.7-0.9-0.4-0.2-0.8-0.4-0.6-0.3-1.3-0.6-5.3-2.7-10.4-4.8-0.9-0.4-1.8-0.8-0.5-0.2-0.9-0.4-1.2-0.5-2.3-1-5.5-2.1-10.6-3.8-1.2-0.4-2.4-0.8-1.8-0.6-3.5-1.2-1.4-0.4-2.7-0.8c-3.6-1-6.8-1.8-9.8-2.5q-1.1-0.3-2.2-0.5-1.1-0.3-2.1-0.5-0.7-0.1-1.3-0.3-1.2-0.2-2.3-0.4-1.2-0.2-2.2-0.4c-2.6-0.4-4.6-0.7-5.8-0.8q-0.5-0.1-0.9-0.1-0.5 0-0.5 0c1.3 1.1 2.1 1.7 2.9 2.4 0.9 0.8 1.8 1.6 2.6 2.4 8 7.8 13.3 17.2 16.6 27.9 4.3 14.2 4.5 28.8 2.6 43.5-0.9 6.8-2.3 13.6-4.1 20.3-0.2 0.6-0.2 1.1-0.3 1.8q0.4 0.1 0.6 0.2c0.7 0.1 1.2 0.2 1.8 0.3 6.8 1 13.2 3.2 19.2 6.8q12.9 7.9 17.2 22.5c1.5 5 2.1 10.1 2.1 15.3 0 1.2 0 2.5 0 3.8q0.5 0.1 0.9 0.2 0.1 0 0.2 0 0.2 0 0.4 0c0.1 0.1 0.1 0.1 0.1 0.1q3.5 0.2 7 0.4c0.3 0 0.5 0 0.7 0q1.3 0.1 2.4 0.2c8 0.7 15.9 2.2 23.6 4.6 8.2 2.4 16 5.8 22.9 10.9 7.2 5.1 12.7 11.5 16.3 19.5q0.4 0.8 0.8 1.6c2.1 0.3 4.1 0.4 6.2 0.7 10.3 1.4 20.1 4.6 29.1 10 9.2 5.6 16.4 13.2 21.2 22.9 2.7 5.5 4.4 11.2 5.4 17.2 0.1 0.7 0.3 1.3 0.4 1.9h0.1q0.2 0 0.4 0 0.4-2.1 0.8-4.3c3.5-16.9 12.5-29.9 27.5-38.5 8.7-5 18-7.9 27.9-9.2 2-0.3 4-0.5 5.9-0.7 0.2-0.2 0.3-0.3 0.3-0.4q0.5-1 1-2.1c2.5-5.3 5.9-9.9 10.1-13.9 3.7-3.4 7.7-6.3 12.1-8.7 7.3-4.1 15.1-6.8 23.2-8.7 5.5-1.3 11.1-2.2 16.7-2.8q1.2-0.1 2.4-0.2 0.4 0 0.7 0 3.3-0.3 6.6-0.4 0.3 0 0.5-0.1 0.2 0 0.4 0 0.1 0 0.2 0c0.4-0.1 0.8-0.2 1.3-0.2v-2.4c0-3.9 0.1-7.8 0.8-11.7 2.3-12.6 8.8-22.1 20-28.4 5.5-3.1 11.4-5 17.6-6 0.5 0 1-0.1 1.5-0.3q0.3 0 0.6-0.1 0.2 0 0.4-0.1c-0.3-1.1-0.5-2-0.7-3-3.4-13.3-5.5-26.9-4.8-40.8 0.4-8.6 1.8-17.1 4.8-25.2 4-11.1 10.2-20.8 19.7-28.2 0.3-0.2 0.5-0.5 1-1q0 0-0.1 0 0 0 0.1 0z"/>
	</g>
</svg>